<mxfile host="65bd71144e">
    <diagram id="--mjnlhZjexuZVG36Sri" name="PÃ¡gina-1">
        <mxGraphModel dx="820" dy="516" grid="0" gridSize="10" guides="1" tooltips="1" connect="1" arrows="1" fold="1" page="1" pageScale="1" pageWidth="827" pageHeight="1169" background="#ffffff" math="0" shadow="1">
            <root>
                <mxCell id="0"/>
                <mxCell id="1" parent="0"/>
                <mxCell id="2" value="MailslotServer" style="shape=umlLifeline;perimeter=lifelinePerimeter;whiteSpace=wrap;html=1;container=1;collapsible=0;recursiveResize=0;outlineConnect=0;fillColor=#f5f5f5;fontColor=#333333;strokeColor=#080808;" vertex="1" parent="1">
                    <mxGeometry x="70" y="60" width="100" height="440" as="geometry"/>
                </mxCell>
                <mxCell id="3" value="syncronicReader" style="shape=umlLifeline;perimeter=lifelinePerimeter;whiteSpace=wrap;html=1;container=1;collapsible=0;recursiveResize=0;outlineConnect=0;fillColor=#f5f5f5;fontColor=#333333;strokeColor=#000000;" vertex="1" parent="1">
                    <mxGeometry x="200" y="60" width="100" height="460" as="geometry"/>
                </mxCell>
                <mxCell id="4" value="" style="html=1;points=[];perimeter=orthogonalPerimeter;fillColor=#808080;" vertex="1" parent="3">
                    <mxGeometry x="45" y="90" width="10" height="30" as="geometry"/>
                </mxCell>
                <mxCell id="5" value="" style="html=1;points=[];perimeter=orthogonalPerimeter;fillColor=#808080;" vertex="1" parent="3">
                    <mxGeometry x="45" y="190" width="10" height="200" as="geometry"/>
                </mxCell>
                <mxCell id="6" value="&lt;font color=&quot;#080808&quot;&gt;start&lt;/font&gt;" style="html=1;verticalAlign=bottom;labelBackgroundColor=none;endArrow=block;endFill=1;shadow=1;strokeColor=#050505;" edge="1" parent="3">
                    <mxGeometry width="160" relative="1" as="geometry">
                        <mxPoint x="-80" y="110" as="sourcePoint"/>
                        <mxPoint x="50" y="110" as="targetPoint"/>
                    </mxGeometry>
                </mxCell>
                <mxCell id="7" value="readMessage(message)" style="html=1;verticalAlign=bottom;labelBackgroundColor=none;endArrow=block;endFill=1;shadow=1;fontColor=#080808;strokeColor=#050505;" edge="1" parent="3">
                    <mxGeometry width="160" relative="1" as="geometry">
                        <mxPoint x="-80" y="210" as="sourcePoint"/>
                        <mxPoint x="50" y="210" as="targetPoint"/>
                    </mxGeometry>
                </mxCell>
                <mxCell id="8" value="" style="html=1;points=[];perimeter=orthogonalPerimeter;fillColor=#808080;" vertex="1" parent="3">
                    <mxGeometry x="45" y="410" width="10" height="30" as="geometry"/>
                </mxCell>
                <mxCell id="23" value="&lt;font color=&quot;#080808&quot;&gt;isMessageComplete&lt;/font&gt;" style="html=1;verticalAlign=bottom;labelBackgroundColor=none;endArrow=block;endFill=1;strokeColor=#050505;rounded=0;entryX=0.9;entryY=0.333;entryDx=0;entryDy=0;entryPerimeter=0;" edge="1" parent="3" source="3" target="25">
                    <mxGeometry x="0.3238" y="50" width="160" relative="1" as="geometry">
                        <mxPoint x="74" y="290" as="sourcePoint"/>
                        <mxPoint x="70" y="310" as="targetPoint"/>
                        <Array as="points">
                            <mxPoint x="100" y="290"/>
                            <mxPoint x="100" y="310"/>
                        </Array>
                        <mxPoint as="offset"/>
                    </mxGeometry>
                </mxCell>
                <mxCell id="25" value="" style="html=1;points=[];perimeter=orthogonalPerimeter;fillColor=#808080;" vertex="1" parent="3">
                    <mxGeometry x="55" y="300" width="10" height="30" as="geometry"/>
                </mxCell>
                <mxCell id="9" value="readAction" style="shape=umlLifeline;perimeter=lifelinePerimeter;whiteSpace=wrap;html=1;container=1;collapsible=0;recursiveResize=0;outlineConnect=0;strokeColor=#080808;fillColor=#f5f5f5;fontColor=#333333;" vertex="1" parent="1">
                    <mxGeometry x="330" y="60" width="100" height="440" as="geometry"/>
                </mxCell>
                <mxCell id="10" value="" style="html=1;points=[];perimeter=orthogonalPerimeter;fillColor=#808080;" vertex="1" parent="9">
                    <mxGeometry x="45" y="240" width="10" height="40" as="geometry"/>
                </mxCell>
                <mxCell id="11" value="Timer" style="shape=umlLifeline;perimeter=lifelinePerimeter;whiteSpace=wrap;html=1;container=1;collapsible=0;recursiveResize=0;outlineConnect=0;strokeColor=#080808;fillColor=#f5f5f5;fontColor=#333333;" vertex="1" parent="1">
                    <mxGeometry x="460" y="60" width="100" height="440" as="geometry"/>
                </mxCell>
                <mxCell id="12" value="" style="html=1;points=[];perimeter=orthogonalPerimeter;fillColor=#808080;" vertex="1" parent="11">
                    <mxGeometry x="45" y="220" width="10" height="40" as="geometry"/>
                </mxCell>
                <mxCell id="13" value="execute" style="html=1;verticalAlign=bottom;labelBackgroundColor=none;endArrow=block;endFill=1;shadow=1;fontColor=#080808;strokeColor=#050505;" edge="1" parent="11">
                    <mxGeometry width="160" relative="1" as="geometry">
                        <mxPoint x="45" y="250" as="sourcePoint"/>
                        <mxPoint x="-80" y="250" as="targetPoint"/>
                    </mxGeometry>
                </mxCell>
                <mxCell id="14" value="Kernel" style="shape=umlLifeline;perimeter=lifelinePerimeter;whiteSpace=wrap;html=1;container=1;collapsible=0;recursiveResize=0;outlineConnect=0;strokeColor=#080808;fillColor=#f5f5f5;fontColor=#333333;" vertex="1" parent="1">
                    <mxGeometry x="590" y="60" width="100" height="440" as="geometry"/>
                </mxCell>
                <mxCell id="15" value="onTick" style="html=1;verticalAlign=bottom;labelBackgroundColor=none;endArrow=block;endFill=1;shadow=1;fontColor=#080808;strokeColor=#050505;" edge="1" parent="14">
                    <mxGeometry width="160" relative="1" as="geometry">
                        <mxPoint x="50" y="220" as="sourcePoint"/>
                        <mxPoint x="-80" y="220" as="targetPoint"/>
                    </mxGeometry>
                </mxCell>
                <mxCell id="16" value="" style="ellipse;html=1;fillColor=#000000;labelBackgroundColor=#050505;fontColor=#080808;strokeColor=#080808;" vertex="1" parent="14">
                    <mxGeometry x="48" y="360" width="4" height="4" as="geometry"/>
                </mxCell>
                <mxCell id="17" value="" style="endArrow=open;html=1;rounded=0;align=center;verticalAlign=top;endFill=0;labelBackgroundColor=none;endSize=6;shadow=1;fontColor=#080808;strokeColor=#050505;strokeWidth=1;" edge="1" parent="14">
                    <mxGeometry relative="1" as="geometry">
                        <mxPoint x="10" y="362" as="targetPoint"/>
                        <mxPoint x="52" y="361.5" as="sourcePoint"/>
                        <Array as="points"/>
                    </mxGeometry>
                </mxCell>
                <mxCell id="18" value="readFile" style="html=1;verticalAlign=bottom;labelBackgroundColor=none;endArrow=block;endFill=1;shadow=1;fontColor=#080808;strokeColor=#050505;" edge="1" parent="1" target="14">
                    <mxGeometry width="160" relative="1" as="geometry">
                        <mxPoint x="250" y="402" as="sourcePoint"/>
                        <mxPoint x="405" y="380" as="targetPoint"/>
                        <Array as="points">
                            <mxPoint x="460" y="402"/>
                        </Array>
                    </mxGeometry>
                </mxCell>
                <mxCell id="19" value="" style="html=1;verticalAlign=bottom;labelBackgroundColor=none;endArrow=block;endFill=1;shadow=1;fontColor=#080808;strokeColor=#050505;" edge="1" parent="1">
                    <mxGeometry width="160" relative="1" as="geometry">
                        <mxPoint x="245" y="430" as="sourcePoint"/>
                        <mxPoint x="120" y="430" as="targetPoint"/>
                        <Array as="points">
                            <mxPoint x="175" y="430"/>
                        </Array>
                    </mxGeometry>
                </mxCell>
                <mxCell id="20" value="&lt;font color=&quot;#080808&quot;&gt;stop&lt;br&gt;&lt;/font&gt;" style="html=1;verticalAlign=bottom;labelBackgroundColor=none;endArrow=block;endFill=1;shadow=1;strokeColor=#050505;" edge="1" parent="1">
                    <mxGeometry width="160" relative="1" as="geometry">
                        <mxPoint x="120" y="480" as="sourcePoint"/>
                        <mxPoint x="250" y="480" as="targetPoint"/>
                    </mxGeometry>
                </mxCell>
                <mxCell id="21" value="read" style="html=1;verticalAlign=bottom;labelBackgroundColor=none;endArrow=block;endFill=1;shadow=1;fontColor=#080808;strokeColor=#050505;" edge="1" parent="1">
                    <mxGeometry width="160" relative="1" as="geometry">
                        <mxPoint x="375" y="330" as="sourcePoint"/>
                        <mxPoint x="250" y="330" as="targetPoint"/>
                    </mxGeometry>
                </mxCell>
            </root>
        </mxGraphModel>
    </diagram>
</mxfile>